<svg width="16" height="17" viewBox="0 0 16 17" fill="none" xmlns="http://www.w3.org/2000/svg">
<path d="M13.2167 15.4331L8.98338 11.1997C8.65005 11.4553 8.24172 11.6581 7.75838 11.8081C7.27505 11.9581 6.78338 12.0331 6.28338 12.0331C4.96116 12.0331 3.84172 11.5747 2.92505 10.6581C2.00838 9.74141 1.55005 8.62196 1.55005 7.29974C1.55005 5.97752 2.00838 4.85807 2.92505 3.94141C3.84172 3.02474 4.96116 2.56641 6.28338 2.56641C7.6056 2.56641 8.72505 3.02474 9.64172 3.94141C10.5584 4.85807 11.0167 5.97752 11.0167 7.29974C11.0167 7.79974 10.9473 8.27752 10.8084 8.73307C10.6695 9.18863 10.4667 9.59418 10.2 9.94974L14.45 14.1997L13.2167 15.4331ZM6.28338 10.2664C7.11672 10.2664 7.81949 9.9803 8.39172 9.40807C8.96394 8.83585 9.25005 8.13307 9.25005 7.29974C9.25005 6.46641 8.96394 5.76363 8.39172 5.19141C7.81949 4.61918 7.11672 4.33307 6.28338 4.33307C5.45005 4.33307 4.74727 4.61918 4.17505 5.19141C3.60283 5.76363 3.31672 6.46641 3.31672 7.29974C3.31672 8.13307 3.60283 8.83585 4.17505 9.40807C4.74727 9.9803 5.45005 10.2664 6.28338 10.2664Z" fill="white"/>
</svg>
